<svg width="193" height="124" viewBox="0 0 193 124" fill="none" xmlns="http://www.w3.org/2000/svg">
<g clip-path="url(#clip0_1009_7047)">
<path d="M171.71 63.07C171.42 62.28 171.42 61.41 171.71 60.62L192.25 4.75999C193.1 2.44999 191.39 -0.0100098 188.92 -0.0100098H3.54C1.59 -9.76585e-06 0 1.58999 0 3.53999V120.15C0 122.11 1.59 123.69 3.54 123.69H188.92C191.38 123.69 193.1 121.24 192.25 118.92L171.71 63.06V63.07ZM84.22 109.01H13.96V87.34H84.22V109.01ZM84.22 72.68H13.96V51.01H84.22V72.68ZM84.22 36.36H13.96V14.69H84.22V36.36Z" fill="black"/>
</g>
<defs>
<clipPath id="clip0_1009_7047">
<rect width="192.47" height="123.7" fill="white"/>
</clipPath>
</defs>
</svg>
